<svg version="1.2" xmlns="http://www.w3.org/2000/svg" viewBox="0 0 14 17" width="14" height="17">
	<title>apple-black-dark</title>
	<defs>
		<clipPath clipPathUnits="userSpaceOnUse" id="cp1">
			<path d="m11.36 9c0.03 2.42 2.13 3.23 2.15 3.24-0.02 0.05-0.33 1.15-1.11 2.27-0.66 0.98-1.35 1.95-2.44 1.97-1.07 0.02-1.42-0.64-2.64-0.64-1.23 0-1.61 0.62-2.62 0.66-1.06 0.04-1.86-1.05-2.53-2.03-1.37-1.98-2.42-5.61-1.01-8.06 0.7-1.21 1.95-1.98 3.31-2 1.03-0.02 2 0.69 2.64 0.69 0.63 0 1.81-0.86 3.06-0.73 0.52 0.02 1.98 0.21 2.92 1.59-0.07 0.04-1.74 1.02-1.73 3.04zm-2.01-5.95c0.56-0.67 0.94-1.61 0.83-2.55-0.8 0.03-1.77 0.54-2.35 1.21-0.52 0.6-0.97 1.56-0.85 2.48 0.9 0.07 1.81-0.46 2.37-1.14z"/>
		</clipPath>
	</defs>
	<style>
		.s0 { fill: #ffffff } 
	</style>
	<g clip-path="url(#cp1)">
		<path class="s0" d="m11.4 9c0 2.4 2.1 3.2 2.1 3.2 0 0.1-0.3 1.2-1.1 2.3-0.7 1-1.4 2-2.4 2-1.1 0-1.5-0.7-2.7-0.7-1.2 0-1.6 0.7-2.6 0.7-1.1 0-1.9-1.1-2.5-2-1.4-2-2.5-5.6-1-8.1 0.7-1.2 1.9-2 3.3-2 1 0 2 0.7 2.6 0.7 0.6 0 1.8-0.9 3.1-0.7 0.5 0 2 0.2 2.9 1.6-0.1 0-1.8 1-1.7 3zm-2-5.9c0.5-0.7 0.9-1.7 0.8-2.6-0.8 0-1.8 0.5-2.4 1.2-0.5 0.6-0.9 1.6-0.8 2.5 0.9 0.1 1.8-0.5 2.4-1.1z"/>
		<rect width="14" height="17" id="Color Fill 1" style="fill: #000000"/>
	</g>
</svg>